<?xml version="1.0" standalone="no"?>
<!DOCTYPE svg PUBLIC "-//W3C//DTD SVG 20010904//EN"
 "http://www.w3.org/TR/2001/REC-SVG-20010904/DTD/svg10.dtd">
<svg version="1.0" xmlns="http://www.w3.org/2000/svg"
 width="2140.000000pt" height="1040.000000pt" viewBox="0 0 2140.000000 1040.000000"
 preserveAspectRatio="xMidYMid meet">

<g transform="translate(0.000000,1040.000000) scale(0.100000,-0.100000)"
fill="#101010" stroke="none">
<path d="M4608 9750 c-81 -14 -160 -40 -253 -85 -132 -64 -197 -114 -236 -183
-17 -31 -44 -77 -60 -102 -16 -25 -40 -77 -55 -115 -27 -68 -27 -75 -26 -255
2 -206 17 -284 74 -395 70 -136 130 -205 278 -322 52 -42 103 -85 112 -97 65
-79 -59 -197 -210 -200 -58 -1 -75 4 -130 33 -34 19 -108 67 -165 108 -116 84
-248 172 -292 195 -16 9 -91 48 -165 88 -74 39 -189 100 -255 134 -282 148
-323 170 -388 208 -163 95 -284 137 -552 192 -382 78 -447 86 -710 86 -184 0
-195 -1 -329 -35 -276 -69 -494 -189 -699 -385 -102 -98 -217 -240 -263 -326
-79 -149 -93 -181 -128 -300 -74 -251 -72 -472 9 -749 60 -207 120 -324 243
-472 228 -272 395 -389 669 -466 159 -45 202 -51 388 -52 187 0 258 9 370 48
156 55 320 172 415 297 33 43 64 81 69 84 19 12 81 147 100 218 36 133 41 174
56 438 8 131 1 163 -65 324 -122 299 -231 422 -472 535 -48 23 -140 55 -205
73 -103 27 -135 31 -253 32 -271 2 -474 -60 -657 -199 -81 -61 -216 -211 -268
-298 -20 -34 -50 -83 -65 -108 -24 -40 -26 -48 -14 -64 12 -17 16 -17 41 -4
14 8 38 25 52 39 56 54 147 128 177 143 212 109 490 117 765 21 241 -83 450
-214 616 -384 140 -144 190 -412 114 -610 -41 -109 -170 -230 -354 -332 -188
-105 -336 -128 -569 -89 -222 38 -369 100 -539 228 -166 124 -277 259 -372
449 -56 111 -95 221 -117 331 -14 70 -1 277 26 393 61 269 185 485 356 621 93
74 143 103 261 153 154 65 188 76 328 102 134 24 153 25 412 21 202 -3 290 -8
340 -20 68 -16 165 -52 222 -81 17 -9 33 -16 37 -16 8 0 238 -105 358 -163 82
-39 145 -75 220 -122 19 -12 67 -40 105 -62 39 -22 115 -66 170 -98 144 -84
360 -206 511 -290 256 -142 271 -157 261 -268 -8 -97 -41 -182 -101 -261 -29
-39 -60 -89 -69 -111 -9 -22 -35 -85 -57 -140 -23 -55 -48 -122 -56 -150 -8
-27 -18 -57 -21 -65 -4 -8 -8 -22 -9 -30 -1 -8 -16 -63 -33 -121 -32 -112 -77
-353 -85 -454 -3 -33 -11 -192 -18 -353 -13 -321 -2 -679 28 -862 8 -52 19
-124 25 -160 11 -79 70 -294 111 -410 137 -383 292 -663 467 -843 104 -107
187 -175 261 -212 30 -15 97 -52 148 -81 148 -86 251 -124 412 -155 83 -16
354 -42 405 -40 6 0 132 4 280 7 264 7 272 6 320 -15 61 -27 81 -45 109 -96
21 -39 21 -51 24 -570 5 -630 1 -676 -63 -810 -49 -102 -109 -176 -167 -206
-157 -80 -406 -80 -683 2 -255 74 -401 140 -595 266 -65 43 -138 90 -162 105
-59 36 -359 249 -428 304 -54 42 -92 71 -269 202 -238 176 -663 440 -781 486
-25 10 -55 24 -67 31 -59 39 -356 125 -532 155 -136 24 -356 9 -506 -34 -65
-18 -199 -75 -255 -109 -130 -76 -257 -208 -345 -359 -85 -142 -89 -161 -89
-393 l0 -200 41 -92 c89 -199 211 -359 353 -466 129 -98 340 -186 490 -207
267 -37 590 121 793 388 72 95 116 182 91 182 -18 0 -62 -35 -162 -132 -130
-126 -176 -152 -310 -175 -174 -30 -393 3 -606 91 -137 58 -332 171 -412 241
-68 58 -90 92 -141 220 -50 122 -54 142 -54 222 0 175 81 332 263 510 61 60
138 106 222 133 66 21 318 7 441 -24 180 -47 419 -177 618 -339 176 -142 404
-312 572 -425 77 -52 171 -120 209 -151 186 -151 505 -378 681 -484 194 -116
444 -232 546 -252 305 -59 374 -62 549 -20 396 93 580 169 709 290 73 69 204
219 255 293 36 52 131 274 156 364 20 72 42 215 60 398 6 52 14 127 20 165 5
40 10 502 10 1075 1 874 3 1013 16 1065 22 84 49 132 110 197 60 63 68 93 28
108 -31 12 -143 12 -244 0 -44 -5 -104 -5 -145 0 -97 13 -348 20 -382 11 -38
-10 -43 -55 -11 -92 105 -120 145 -182 159 -244 17 -72 24 -1013 9 -1172 -12
-132 -25 -176 -62 -209 -50 -45 -78 -49 -348 -46 -673 5 -832 71 -1171 487
-113 139 -256 378 -310 520 -11 28 -24 59 -29 70 -5 11 -27 76 -48 145 -44
139 -65 242 -87 435 -8 72 -19 164 -25 205 -34 268 -37 557 -7 830 9 85 22
216 27 290 18 233 71 508 131 685 82 238 222 395 354 395 22 0 83 -9 135 -20
207 -42 404 -50 561 -21 207 38 330 92 448 196 86 76 121 87 183 59 71 -32
114 -110 163 -299 76 -295 77 -718 0 -1055 -23 -104 -41 -159 -109 -340 -47
-123 -53 -162 -31 -180 33 -28 115 29 281 194 148 148 226 249 288 372 32 64
90 258 106 354 21 122 3 373 -46 640 -45 253 -170 484 -370 687 -53 54 -66
108 -58 231 11 155 -27 402 -92 599 -36 109 -45 128 -119 243 -159 246 -356
433 -573 543 -242 123 -454 174 -614 147z m470 -222 c-3 -31 -6 -33 -44 -36
-74 -5 -85 52 -11 61 18 2 38 5 45 5 9 1 12 -8 10 -30z m-114 -148 c290 -49
586 -223 680 -400 16 -30 57 -98 91 -150 34 -52 66 -104 72 -115 19 -38 24
-90 12 -137 -12 -44 -11 -49 15 -88 51 -77 47 -156 -9 -216 -34 -36 -36 -37
-92 -30 -32 3 -98 12 -148 21 -63 10 -172 14 -365 15 -310 0 -390 10 -556 65
-113 37 -254 106 -325 157 -66 47 -176 173 -209 238 -16 32 -33 90 -40 138
-30 199 50 385 200 462 106 54 466 76 674 40z m-2614 -560 c0 -5 -4 -10 -10
-10 -5 0 -10 5 -10 10 0 6 5 10 10 10 6 0 10 -4 10 -10z m453 -206 c66 -33 63
-30 47 -59 -10 -20 -11 -28 -2 -37 15 -15 16 -55 2 -63 -6 -4 -27 6 -46 22
-63 50 -88 63 -122 63 -49 0 -53 26 -9 67 44 40 62 41 130 7z m474 -206 c39
-27 38 -42 -5 -46 -23 -2 -33 2 -42 18 -11 21 -8 50 7 50 4 0 22 -10 40 -22z
m-1814 -229 c8 -13 6 -24 -6 -43 -19 -29 -48 -34 -67 -11 -9 11 -8 20 10 45
23 33 46 36 63 9z m157 1 c0 -5 -11 -10 -25 -10 -14 0 -25 5 -25 10 0 6 11 10
25 10 14 0 25 -4 25 -10z m3345 -22 c14 -6 25 -14 25 -18 0 -11 -57 -21 -75
-14 -20 8 -19 31 3 37 9 3 18 5 19 6 1 0 14 -4 28 -11z m-3085 -68 c22 -22 17
-43 -16 -70 -14 -13 -19 -11 -35 9 -22 27 -24 52 -7 69 17 17 35 15 58 -8z
m3870 10 c0 -5 -16 -10 -35 -10 -19 0 -35 5 -35 10 0 6 16 10 35 10 19 0 35
-4 35 -10z m-368 -30 c89 -18 142 -33 156 -43 8 -6 25 -33 39 -61 23 -46 25
-54 14 -99 -16 -68 -57 -122 -111 -146 -75 -32 -154 -41 -374 -41 -200 0 -214
1 -261 24 -74 34 -105 70 -105 119 0 35 6 46 48 85 124 117 416 197 594 162z
m-3852 -23 c19 -7 58 -23 87 -36 119 -53 143 -72 130 -105 -10 -26 -53 -19
-144 24 -47 22 -95 40 -107 40 -28 0 -66 27 -66 46 0 8 15 21 33 29 17 8 32
14 32 14 0 1 16 -5 35 -12z m438 -64 c2 -8 -5 -13 -17 -13 -12 0 -21 6 -21 16
0 18 31 15 38 -3z m2687 -12 c19 -38 8 -44 -52 -30 -56 14 -68 22 -60 43 5 11
20 16 51 16 40 0 47 -3 61 -29z m-769 -28 c24 -27 43 -54 42 -62 -4 -18 -28
-27 -28 -10 0 25 -33 49 -67 49 -21 0 -36 6 -40 15 -6 16 22 55 40 55 5 0 29
-21 53 -47z m-1832 -49 c9 -8 16 -19 16 -23 0 -16 -25 -31 -51 -31 -36 0 -51
37 -23 57 23 17 39 16 58 -3z m2505 -44 c44 -22 57 -40 47 -65 -5 -13 -13 -12
-55 10 -58 29 -67 40 -51 60 15 18 8 19 59 -5z m-461 -38 c6 -37 -16 -55 -61
-49 -44 6 -77 31 -77 59 0 17 7 19 68 16 61 -3 67 -5 70 -26z m1993 -19 c60
-65 71 -103 29 -103 -12 0 -26 -13 -35 -30 -19 -36 -34 -38 -64 -6 -13 13 -34
27 -47 30 -35 9 -35 11 42 134 17 26 33 21 75 -25z m-4171 27 c0 -5 -13 -10
-30 -10 -16 0 -30 5 -30 10 0 6 14 10 30 10 17 0 30 -4 30 -10z m2538 -29 c20
-12 10 -45 -13 -49 -28 -4 -60 21 -52 42 7 17 43 21 65 7z m-228 -51 c0 -5 -6
-10 -14 -10 -8 0 -18 5 -21 10 -3 6 3 10 14 10 12 0 21 -4 21 -10z m198 -36
c38 -11 27 -84 -13 -84 -44 0 -93 59 -68 83 8 9 50 9 81 1z m176 -17 c9 -15 5
-23 -22 -48 -38 -35 -51 -36 -86 -8 -50 39 -22 81 53 76 30 -1 48 -8 55 -20z
m-274 -90 c30 -18 70 -40 88 -48 17 -7 31 -18 29 -23 -2 -6 -26 -19 -53 -29
-27 -10 -65 -26 -86 -34 -42 -18 -58 -12 -58 22 0 27 -9 31 -97 40 -72 8 -84
-6 -28 -29 33 -14 35 -18 35 -59 0 -33 -6 -50 -24 -68 -13 -14 -26 -38 -28
-54 -3 -26 -7 -30 -39 -33 -44 -4 -56 16 -34 58 20 38 19 43 -10 87 -23 33
-25 44 -20 93 8 67 31 91 107 114 29 9 64 23 78 30 23 13 28 12 55 -10 17 -13
55 -39 85 -57z m910 -43 c13 -13 13 -16 0 -24 -21 -13 -25 -13 -50 8 -14 11
-20 24 -16 31 9 14 44 6 66 -15z m820 -24 c12 -23 3 -25 -22 -6 -22 16 -23 26
-3 26 8 0 19 -9 25 -20z m90 -93 c0 -31 -9 -38 -31 -26 -29 15 -25 49 6 49 20
0 25 -5 25 -23z m160 -97 c0 -5 -9 -10 -20 -10 -11 0 -20 5 -20 10 0 6 9 10
20 10 11 0 20 -4 20 -10z m-2400 -130 c0 -11 -4 -20 -9 -20 -11 0 -22 26 -14
34 12 12 23 5 23 -14z m2400 -90 c0 -39 -35 -77 -56 -59 -20 16 -17 39 8 66
30 32 48 29 48 -7z m-50 -274 c0 -11 -19 -15 -25 -6 -3 5 1 10 9 10 9 0 16 -2
16 -4z m-2490 -171 c25 -26 26 -19 -23 -150 -15 -41 -40 -56 -60 -36 -14 14
-36 97 -37 138 0 23 7 37 26 52 35 28 65 26 94 -4z m2410 -295 c15 -28 5 -40
-34 -40 -36 0 -56 15 -56 42 0 27 75 26 90 -2z m18 -158 c2 -7 -7 -12 -22 -12
-30 0 -44 17 -19 23 24 6 36 3 41 -11z m-2505 -313 c44 -12 47 -30 11 -58 -55
-43 -114 -21 -114 43 0 23 4 26 33 26 17 0 49 -5 70 -11z m-31 -214 c18 -39
-1 -51 -46 -30 -60 29 -60 55 0 55 27 0 37 -5 46 -25z m150 -196 c1 -92 -11
-129 -42 -129 -35 0 -41 32 -14 79 22 39 23 47 12 77 -9 26 -9 36 2 49 7 9 20
15 27 13 12 -2 15 -23 15 -89z m64 -416 c19 -25 17 -33 -5 -33 -21 0 -31 17
-23 38 6 16 12 15 28 -5z m2377 -130 c21 -37 14 -83 -13 -83 -35 0 -60 62 -40
100 14 27 30 22 53 -17z m95 -185 c8 -8 6 -18 -11 -38 -12 -15 -30 -42 -39
-59 -9 -17 -25 -31 -35 -31 -10 0 -31 -9 -48 -20 -38 -25 -61 -25 -74 -1 -13
24 1 37 48 44 32 5 50 20 51 42 0 6 9 25 20 43 15 24 27 32 48 32 15 0 33 -5
40 -12z m-2603 -146 c-8 -8 -35 20 -35 37 1 12 5 11 21 -8 11 -13 17 -26 14
-29z m55 -202 c0 -5 -11 -10 -25 -10 -14 0 -25 5 -25 10 0 6 11 10 25 10 14 0
25 -4 25 -10z m2386 -128 c13 -9 28 -82 17 -82 -28 0 -80 61 -68 80 7 12 35
13 51 2z m189 -152 c0 -18 -43 -26 -57 -12 -16 16 2 33 30 30 16 -2 27 -9 27
-18z m-2394 -65 c27 -38 67 -86 90 -105 40 -35 41 -37 32 -80 -7 -38 -13 -45
-34 -48 -21 -2 -29 3 -40 30 -7 18 -39 66 -70 108 -76 101 -94 137 -78 156 23
28 51 10 100 -61z m2229 -175 c0 -5 -7 -10 -15 -10 -8 0 -15 5 -15 10 0 6 7
10 15 10 8 0 15 -4 15 -10z m144 -19 c14 -26 14 -30 0 -35 -9 -3 -20 -4 -25 0
-16 9 -9 64 7 64 2 0 10 -13 18 -29z m-60 -267 c9 -3 16 -11 16 -18 0 -6 7
-24 16 -41 8 -16 12 -40 9 -53 -5 -20 -11 -23 -43 -20 l-37 3 2 45 c2 25 3 55
4 68 1 23 7 26 33 16z m-76 -26 c-3 -7 -15 -13 -28 -13 -13 0 -25 6 -27 13 -3
8 6 12 27 12 21 0 30 -4 28 -12z m105 -270 l57 2 0 -86 c0 -70 -4 -93 -21
-120 -11 -19 -21 -34 -22 -34 -1 0 -24 11 -51 25 -27 14 -55 25 -62 25 -7 0
-19 12 -26 26 -9 18 -35 35 -83 56 -83 35 -99 48 -90 77 7 22 29 28 41 10 7
-13 89 -49 110 -49 8 0 14 10 14 24 0 47 10 59 44 50 17 -4 57 -7 89 -6z
m-109 -380 c15 -25 -17 -57 -42 -42 -22 14 -28 44 -10 55 18 12 39 7 52 -13z
m-3724 -90 c81 -19 133 -43 154 -71 24 -33 15 -56 -28 -71 -23 -9 -31 -5 -74
36 -26 25 -66 55 -89 67 -23 11 -44 25 -48 31 -10 16 5 32 24 25 9 -3 36 -11
61 -17z m3890 -82 c0 -15 -11 -33 -27 -45 -14 -12 -24 -22 -22 -24 2 -1 13 -7
24 -13 11 -6 20 -22 20 -35 0 -20 -5 -24 -35 -27 -19 -1 -57 3 -85 10 -46 12
-50 16 -50 42 0 22 7 33 32 47 17 10 49 29 70 43 50 33 73 33 73 2z m-3516
-121 c7 -20 -23 -33 -34 -14 -5 7 -6 17 -4 21 9 13 32 9 38 -7z m3366 -69 c19
-23 8 -61 -18 -64 -29 -4 -53 14 -45 36 15 42 41 54 63 28z m-3064 -73 c51
-57 52 -58 103 -56 60 3 73 -12 47 -52 -14 -22 -21 -24 -49 -18 -66 15 -117 7
-147 -22 -31 -30 -65 -30 -65 0 0 12 9 21 25 25 80 19 -47 100 -157 100 -30 0
-50 7 -72 26 -17 14 -31 30 -31 34 0 12 45 16 180 19 l115 1 51 -57z m3108
-69 c9 -22 8 -24 -9 -24 -8 0 -15 9 -15 20 0 24 15 27 24 4z m-2826 -76 c16
-16 -3 -38 -34 -38 -29 0 -40 16 -24 35 15 18 42 19 58 3z m-170 -60 c-2 -18
-9 -22 -28 -20 -52 6 -51 42 1 42 26 0 30 -3 27 -22z m2947 0 c119 8 124 2 89
-100 -14 -42 -31 -81 -38 -87 -8 -7 -26 -6 -56 3 -58 17 -80 52 -80 127 0 63
5 72 34 62 12 -4 35 -6 51 -5z m-2600 -196 c-6 -7 -35 18 -35 31 0 5 9 2 20
-8 11 -10 18 -20 15 -23z m322 -394 c-3 -8 -6 -5 -6 6 -1 11 2 17 5 13 3 -3 4
-12 1 -19z m327 -141 c64 -36 60 -50 -13 -45 -71 5 -103 26 -81 52 17 22 48
20 94 -7z m317 -78 c25 -25 20 -43 -14 -47 -32 -4 -56 31 -36 54 16 19 25 18
50 -7z m-2961 -54 c0 -19 -20 -29 -32 -17 -8 8 -7 16 2 26 14 17 30 12 30 -9z
m3286 -86 c17 -17 53 -45 80 -62 90 -59 56 -94 -38 -39 -89 52 -140 112 -105
125 23 10 31 7 63 -24z m-86 -92 c0 -14 -5 -17 -22 -11 -30 8 -59 35 -55 48 2
6 14 13 28 16 26 7 48 -17 49 -53z m435 43 c0 -9 -11 -16 -28 -18 -18 -2 -32
-12 -39 -28 -10 -21 -18 -24 -47 -22 -35 3 -36 5 -39 46 l-3 43 78 -3 c61 -2
78 -6 78 -18z m-3075 -30 c0 -5 -4 -10 -10 -10 -5 0 -10 5 -10 10 0 6 5 10 10
10 6 0 10 -4 10 -10z"/>
<path d="M14405 8404 c-55 -7 -162 -20 -238 -29 -137 -15 -177 -26 -177 -46 0
-6 26 -38 58 -72 68 -72 158 -188 166 -214 24 -84 26 -243 26 -2224 0 -1514
-3 -2103 -11 -2141 -7 -29 -38 -106 -70 -170 -87 -176 -120 -303 -87 -336 9
-9 93 -12 317 -12 243 0 317 -3 367 -16 105 -26 155 -9 141 47 -4 14 -25 54
-48 89 -24 36 -52 81 -64 100 -12 19 -41 64 -64 100 -23 36 -50 94 -61 129
-19 61 -20 95 -20 1116 0 1178 -1 1163 65 1262 19 29 35 55 35 58 0 3 30 45
66 93 172 227 291 305 415 268 73 -21 143 -67 172 -113 24 -40 58 -174 77
-308 8 -56 10 -409 8 -1185 l-3 -1105 -27 -77 c-15 -42 -53 -135 -84 -205 -78
-179 -88 -213 -69 -233 23 -22 823 -23 873 0 l32 15 -55 74 c-69 91 -105 161
-145 282 -68 204 -64 122 -70 1449 l-5 1205 -22 59 c-29 77 -44 94 -169 201
-138 119 -235 155 -416 155 -165 0 -367 -69 -463 -160 -60 -56 -117 -66 -152
-27 -27 29 -31 52 -38 227 -11 244 -7 1459 5 1519 5 29 10 91 10 137 0 72 -3
85 -19 94 -25 13 -130 11 -256 -6z m152 -172 c7 -4 14 -19 15 -32 3 -21 -1
-25 -22 -25 -25 0 -37 22 -26 51 6 16 15 17 33 6z m1 -245 c4 -20 -25 -34 -39
-20 -14 14 1 45 20 41 9 -2 17 -11 19 -21z m15 -779 c8 -28 -1 -42 -18 -28
-13 11 -9 50 5 50 4 0 10 -10 13 -22z m-58 -788 c-3 -5 -13 -10 -21 -10 -8 0
-14 5 -14 10 0 6 9 10 21 10 11 0 17 -4 14 -10z m1303 -503 c3 -12 -4 -17 -22
-17 -24 0 -35 18 -20 32 11 11 39 1 42 -15z m-1284 -1372 c10 -28 -5 -45 -40
-45 -41 0 -57 26 -29 46 25 18 61 18 69 -1z m-17 -387 c36 -35 42 -58 16 -58
-25 0 -83 49 -83 71 0 29 30 23 67 -13z m18 -378 c9 -28 -2 -40 -36 -40 -31 0
-46 19 -35 45 9 23 63 19 71 -5z m5 -120 c0 -5 -13 -10 -30 -10 -16 0 -30 5
-30 10 0 6 14 10 30 10 17 0 30 -4 30 -10z m-109 -260 c23 -13 24 -26 3 -34
-20 -8 -54 11 -54 29 0 17 23 19 51 5z"/>
<path d="M16875 7613 c-141 -74 -152 -238 -25 -371 53 -55 104 -75 178 -69 78
6 131 39 180 111 40 61 40 92 0 168 -72 136 -233 214 -333 161z"/>
<path d="M11825 6663 c-85 -11 -138 -27 -165 -50 -17 -13 -30 -29 -30 -33 0
-5 19 -18 43 -28 55 -25 72 -45 149 -172 110 -181 99 104 96 -2490 l-3 -2275
-34 -79 c-27 -62 -52 -98 -115 -167 -83 -89 -140 -172 -151 -222 l-7 -27 480
0 c486 0 532 3 532 36 0 19 -34 76 -80 138 -72 96 -118 222 -145 398 -12 79
-15 225 -15 756 0 728 1 735 60 786 54 45 108 44 352 -8 222 -47 357 -45 469
8 88 42 268 225 317 322 58 116 57 109 56 624 -2 463 -5 649 -23 1530 -9 422
-12 460 -49 578 -17 51 -78 145 -114 173 -99 77 -289 132 -463 133 -142 1
-179 -12 -472 -162 -141 -72 -165 -66 -184 48 -5 34 -17 76 -25 92 -20 39 -70
68 -119 68 -22 1 -69 7 -105 15 -60 13 -185 17 -255 8z m161 -148 c10 -39 -2
-57 -33 -53 -47 5 -45 78 1 78 19 0 27 -7 32 -25z m941 -153 c31 -17 73 -72
111 -150 20 -39 80 -277 108 -427 19 -103 14 -306 -12 -524 -11 -96 -12 -141
-4 -200 6 -42 8 -114 5 -161 -3 -47 -7 -287 -10 -535 -5 -576 -23 -794 -70
-866 -39 -60 -75 -71 -196 -59 -173 18 -215 32 -281 97 -81 80 -182 266 -194
358 -2 17 -6 116 -9 220 -19 693 -24 790 -42 850 -16 53 -18 100 -18 415 1
367 9 453 49 542 8 18 16 38 18 44 1 6 39 71 83 143 104 172 153 227 225 252
72 24 192 25 237 1z m318 -137 c0 -14 -8 -21 -27 -23 -22 -3 -28 1 -28 16 0
25 10 33 35 30 12 -2 20 -10 20 -23z m25 -325 c0 -5 -7 -10 -15 -10 -8 0 -15
5 -15 10 0 6 7 10 15 10 8 0 15 -4 15 -10z m-1050 -685 c0 -30 -3 -35 -24 -35
-32 0 -39 12 -26 44 6 16 17 26 30 26 16 0 20 -7 20 -35z m1165 -256 c9 -29
-7 -42 -30 -25 -11 8 -16 19 -12 30 9 23 34 20 42 -5z"/>
<path d="M7072 6627 c-16 -19 -6 -40 44 -102 55 -68 140 -221 164 -295 20 -64
22 -83 16 -178 -4 -59 -10 -134 -14 -167 -6 -50 3 -1991 11 -2251 2 -90 15
-61 -117 -268 -53 -85 -85 -161 -71 -174 3 -3 79 -7 168 -8 133 -2 184 -7 282
-29 76 -17 166 -28 245 -32 123 -5 127 -5 155 19 26 23 27 27 17 57 -6 17 -26
51 -45 74 -67 83 -145 206 -168 263 -23 62 -22 35 -32 544 -2 76 11 574 18
735 3 61 10 202 15 315 5 113 12 268 15 345 7 164 11 223 30 403 l15 133 50
73 c69 103 231 246 298 263 43 10 103 -16 163 -74 31 -30 63 -69 70 -86 6 -18
24 -61 40 -97 32 -76 75 -238 88 -336 19 -137 32 -447 22 -504 -14 -75 -98
-237 -180 -348 -66 -88 -87 -135 -75 -167 13 -32 167 -9 264 40 64 32 120 81
196 170 109 129 168 233 194 345 7 30 24 89 37 130 65 198 67 436 8 615 -49
148 -181 359 -272 434 -50 41 -196 116 -255 131 -50 13 -130 4 -228 -24 -209
-61 -258 -81 -340 -141 -35 -25 -50 -31 -67 -24 -28 10 -43 39 -43 83 0 61
-14 82 -62 94 -78 20 -320 44 -483 49 -137 5 -162 3 -173 -10z m428 -272 c27
-14 48 -50 36 -62 -7 -8 -105 29 -117 44 -27 32 30 44 81 18z m35 -167 c2 -13
6 -36 7 -53 3 -27 6 -30 36 -27 18 2 32 -1 32 -7 0 -6 -15 -11 -33 -11 -28 0
-35 -5 -45 -34 -17 -47 -32 -57 -68 -47 l-29 8 29 12 c23 9 27 16 22 34 -12
40 -19 115 -13 131 10 25 56 20 62 -6z m1375 -208 c0 -5 -11 -10 -25 -10 -14
0 -25 5 -25 10 0 6 11 10 25 10 14 0 25 -4 25 -10z m-1495 -250 c21 -23 13
-50 -14 -50 -26 0 -34 15 -27 46 8 29 17 30 41 4z m1502 -244 c-4 -10 -18 -16
-36 -16 -47 0 -50 24 -6 48 24 13 51 -7 42 -32z m-1451 -230 c8 -34 -2 -46
-36 -46 -18 0 -34 8 -44 21 -22 32 -10 49 35 49 33 0 40 -4 45 -24z m154 -424
c0 -20 -4 -23 -27 -20 -38 4 -45 44 -11 57 26 10 38 -1 38 -37z m-10 -217 c16
-19 6 -44 -16 -41 -20 3 -28 20 -20 41 7 19 20 19 36 0z m-182 -779 c3 -34 1
-37 -20 -34 -27 4 -37 41 -17 64 19 23 34 11 37 -30z m12 -111 c11 -29 -3 -75
-23 -75 -23 0 -37 23 -37 62 0 34 3 38 25 38 18 0 28 -7 35 -25z m185 -90 c0
-14 -16 -25 -62 -41 -61 -22 -62 -22 -79 -2 -16 16 -16 21 -4 28 8 6 25 10 36
10 12 0 37 7 55 15 41 17 54 15 54 -10z m-30 -295 c-3 -5 -13 -10 -21 -10 -8
0 -14 5 -14 10 0 6 9 10 21 10 11 0 17 -4 14 -10z"/>
<path d="M16542 6628 c-22 -22 -13 -41 51 -102 78 -76 132 -179 146 -281 21
-150 48 -1388 44 -2075 -4 -648 -25 -758 -178 -925 -35 -38 -64 -73 -65 -78 0
-4 150 -6 333 -3 182 2 348 4 367 3 166 -4 175 -3 178 21 5 34 -25 105 -128
313 -16 32 -30 98 -45 210 -27 199 -30 249 -29 474 0 180 3 237 19 310 15 67
19 123 18 220 -1 72 -5 525 -8 1007 l-6 878 -26 20 c-25 19 -40 20 -342 20
-233 0 -320 -3 -329 -12z m338 -128 c0 -5 -7 -10 -15 -10 -8 0 -15 5 -15 10 0
6 7 10 15 10 8 0 15 -4 15 -10z m150 -394 c0 -3 -4 -8 -10 -11 -5 -3 -10 -1
-10 4 0 6 5 11 10 11 6 0 10 -2 10 -4z m-28 -571 c7 -54 5 -66 -20 -115 -15
-30 -30 -54 -35 -53 -4 2 -9 48 -11 104 -2 78 1 104 12 115 29 29 46 12 54
-51z m68 -35 c0 -5 -7 -10 -16 -10 -8 0 -12 5 -9 10 3 6 10 10 16 10 5 0 9 -4
9 -10z m-176 -402 c7 -27 -5 -41 -30 -36 -12 2 -20 13 -22 31 -3 23 0 27 21
27 17 0 26 -7 31 -22z m49 -450 c25 -34 15 -48 -33 -48 -35 0 -39 3 -45 30 -4
16 -3 34 0 40 12 19 57 6 78 -22z m152 -418 c0 -20 -6 -26 -27 -28 -24 -3 -28
0 -28 21 0 30 9 39 35 35 14 -2 20 -10 20 -28z m0 -241 c9 -14 2 -20 -31 -22
-20 -1 -29 3 -32 16 -3 13 3 17 27 17 16 0 33 -5 36 -11z"/>
<path d="M17846 6631 c-10 -15 43 -45 129 -75 44 -15 97 -39 118 -54 75 -51
170 -167 261 -318 89 -148 311 -493 367 -569 39 -53 235 -379 292 -485 59
-110 75 -185 58 -275 -11 -60 -53 -155 -87 -195 -7 -8 -33 -52 -58 -97 -45
-81 -134 -212 -197 -290 -46 -55 -122 -161 -229 -318 -49 -71 -105 -152 -125
-180 -20 -27 -65 -95 -101 -150 -134 -203 -205 -274 -359 -355 -44 -24 -90
-52 -102 -63 -47 -42 -35 -46 165 -46 108 0 216 -6 257 -13 39 -7 87 -12 109
-10 l38 3 -8 37 c-4 20 -8 62 -8 94 0 49 6 67 48 140 27 45 66 104 87 129 22
26 39 50 39 54 0 4 24 40 53 79 30 39 60 81 68 92 8 12 63 88 122 170 333 457
427 567 492 580 41 7 101 -15 134 -50 11 -11 56 -82 100 -156 45 -74 102 -169
128 -210 27 -41 55 -86 63 -100 21 -36 76 -123 202 -317 159 -244 169 -307 77
-465 l-28 -47 20 -25 20 -26 493 0 c271 0 495 2 497 5 3 2 -100 111 -228 242
-235 240 -328 350 -421 499 -62 99 -162 254 -350 539 -80 121 -155 236 -167
255 -12 19 -42 67 -66 105 -80 125 -104 207 -89 296 13 79 18 89 182 323 32
44 83 119 115 166 32 47 60 87 63 90 3 3 25 34 49 70 66 98 170 237 226 305
27 34 66 80 85 105 193 242 314 370 408 430 29 18 51 38 49 44 -2 6 -17 18
-33 26 -23 12 -81 16 -270 18 -260 4 -269 2 -264 -50 1 -13 3 -77 3 -143 2
-117 1 -122 -31 -182 -17 -35 -73 -113 -122 -175 -50 -62 -128 -160 -174 -218
-46 -58 -113 -141 -148 -184 -34 -44 -84 -107 -109 -141 -26 -34 -77 -94 -115
-133 -65 -67 -72 -72 -112 -72 -24 0 -55 6 -70 14 -40 21 -532 718 -594 841
-17 33 -47 87 -67 119 -30 50 -36 68 -35 115 1 66 13 93 66 144 21 22 37 44
35 50 -5 15 -942 22 -951 8z m894 -811 c0 -5 -9 -10 -20 -10 -11 0 -20 5 -20
10 0 6 9 10 20 10 11 0 20 -4 20 -10z m691 -1046 c24 -21 21 -57 -4 -62 -10
-2 -40 8 -67 22 -27 14 -65 26 -85 26 -29 0 -35 4 -35 21 0 21 3 22 86 16 62
-3 90 -10 105 -23z m767 -1355 c10 -16 10 -24 1 -35 -19 -23 -29 -16 -29 21 0
40 9 44 28 14z"/>
<path d="M10195 6605 c-207 -42 -419 -176 -523 -330 -89 -131 -96 -159 -96
-390 -1 -167 2 -210 17 -260 29 -93 104 -237 160 -306 65 -81 181 -193 222
-215 30 -16 33 -16 58 1 24 15 27 24 27 70 0 30 -7 80 -14 112 -22 85 -26 137
-26 346 -1 232 26 451 71 568 42 109 73 132 223 168 119 28 164 27 212 -5 46
-31 55 -43 89 -112 29 -58 72 -297 96 -527 18 -177 16 -248 -11 -318 -46 -121
-241 -341 -355 -400 -86 -45 -210 -99 -368 -163 -140 -57 -279 -132 -356 -193
-52 -42 -134 -161 -170 -249 -15 -37 -42 -120 -60 -186 -31 -110 -33 -126 -29
-240 4 -100 10 -138 36 -217 40 -127 82 -211 150 -302 92 -122 201 -199 322
-227 30 -7 68 -16 84 -21 48 -15 88 -10 177 20 115 39 186 73 306 148 135 84
157 92 191 66 26 -20 27 -23 27 -131 0 -71 5 -116 12 -123 22 -22 101 -28 379
-29 242 0 283 2 294 15 17 20 3 51 -85 190 -34 55 -68 116 -73 135 -6 19 -16
105 -23 190 -6 85 -13 173 -16 195 -3 22 -8 438 -12 925 -5 565 -12 905 -19
940 -6 30 -21 120 -33 200 -12 80 -26 149 -30 155 -5 5 -9 15 -9 21 0 22 -70
134 -124 198 -28 34 -64 81 -80 104 -23 34 -48 53 -108 83 -198 99 -362 128
-533 94z m800 -864 c0 -8 -4 -16 -10 -18 -16 -5 -38 14 -30 26 9 16 40 9 40
-8z m-70 -348 c4 -13 -1 -23 -17 -33 -42 -28 -58 -50 -58 -80 0 -24 -4 -30
-21 -30 -16 0 -19 3 -11 13 6 7 10 32 9 56 -1 36 3 47 26 67 33 28 62 31 72 7z
m-233 -468 c12 -44 11 -461 -1 -524 -6 -29 -11 -118 -11 -196 0 -145 -16 -266
-44 -327 -8 -18 -16 -37 -18 -43 -14 -42 -78 -132 -126 -176 -73 -68 -217
-181 -259 -203 -54 -27 -107 -21 -150 17 -21 19 -59 48 -85 66 -57 38 -81 87
-108 216 -29 141 -33 218 -16 336 23 159 70 277 161 405 80 112 252 268 383
347 26 16 56 37 67 47 47 43 109 70 154 68 40 -3 46 -6 53 -33z m-1092 -687
c24 -26 26 -44 4 -52 -30 -11 -64 20 -64 60 0 21 37 17 60 -8z m1420 -403 c0
-20 -32 -35 -75 -35 -29 0 -36 3 -33 17 5 28 108 45 108 18z m-160 -450 c18
-21 8 -51 -15 -47 -30 5 -65 31 -65 47 0 20 63 20 80 0z"/>
</g>
</svg>
